<svg xmlns="http://www.w3.org/2000/svg" viewBox="0 0 640 480" fill="none">
  <rect width="640" height="480" fill="#f6f2ea"/>
  <rect x="24" y="24" width="592" height="432" fill="#fff" stroke="#111" stroke-width="6"/>
  <rect x="24" y="24" width="592" height="48" fill="#111"/>
  <circle cx="52" cy="48" r="8" fill="#ff2b2b"/>
  <circle cx="76" cy="48" r="8" fill="#ffe500"/>
  <circle cx="100" cy="48" r="8" fill="#1d4bff"/>
  <rect x="140" y="38" width="360" height="20" fill="#333" rx="2"/>
  <text x="320" y="120" text-anchor="middle" fill="#111" font-family="monospace" font-size="14" font-weight="bold">FREE PRESET PACK</text>
  <text x="320" y="142" text-anchor="middle" fill="#666" font-family="sans-serif" font-size="12">Complete tasks to unlock</text>
  <rect x="80" y="168" width="480" height="44" fill="#ff0000" stroke="#111" stroke-width="3"/>
  <text x="104" y="196" fill="#fff" font-family="sans-serif" font-size="14" font-weight="600">Subscribe on YouTube</text>
  <rect x="80" y="224" width="480" height="44" fill="#5865f2" stroke="#111" stroke-width="3"/>
  <text x="104" y="252" fill="#fff" font-family="sans-serif" font-size="14" font-weight="600">Join Discord server</text>
  <rect x="80" y="280" width="480" height="44" fill="#1db954" stroke="#111" stroke-width="3"/>
  <text x="104" y="308" fill="#fff" font-family="sans-serif" font-size="14" font-weight="600">Follow on Spotify</text>
  <rect x="80" y="344" width="480" height="16" fill="#eee9df" stroke="#111" stroke-width="2"/>
  <rect x="80" y="344" width="320" height="16" fill="#ffe500"/>
  <text x="520" y="356" text-anchor="end" fill="#111" font-family="sans-serif" font-size="10">2/3</text>
  <rect x="80" y="380" width="480" height="48" fill="#ff2b2b" stroke="#111" stroke-width="3"/>
  <text x="320" y="410" text-anchor="middle" fill="#fff" font-family="monospace" font-size="12">UNLOCK FILE</text>
</svg>
